<?xml version="1.0" standalone="no"?>
<!DOCTYPE svg PUBLIC "-//W3C//DTD SVG 1.1//EN" "http://www.w3.org/Graphics/SVG/1.1/DTD/svg11.dtd" >
<svg xmlns="http://www.w3.org/2000/svg" xmlns:xlink="http://www.w3.org/1999/xlink" version="1.1">
<metadata>
Created by FontForge 20201107 at Fri Aug  6 17:30:10 2021
 By Jimmy Wärting
</metadata>
<defs>
<font id="CraftworkSans-Regular" horiz-adv-x="511" >
  <font-face 
    font-family="Craftwork Sans"
    font-weight="400"
    font-stretch="normal"
    units-per-em="1000"
    panose-1="0 0 5 0 0 0 0 0 0 0"
    ascent="800"
    descent="-200"
    x-height="500"
    cap-height="700"
    bbox="25 -200 1273 950"
    underline-thickness="50"
    underline-position="-100"
    unicode-range="U+0020-25CA"
  />
<missing-glyph horiz-adv-x="540" 
d="M443 -200h-343v1080h343v-1080zM181 808v-36h71v-40h-72v-36h180v36h-72v40h72v36h-179zM180 668v-112h180v37h-72v75h-108zM252 593h-36v39h36v-39zM180 527v-36h72v-40h-72v-35h108v75h72v36h-180zM324 462v-71h-144v-37h180v108h-36zM252 330v-60h36v25h36v-51h-108
v86h-36v-122h180v122h-108zM180 143v-122h180v122h-180zM324 57h-108v51h108v-51zM180 -3v-36h76l-76 -51v-35h180v35h-111l76 51h35v36h-180z" />
    <glyph glyph-name=".notdef" horiz-adv-x="540" 
d="M443 -200h-343v1080h343v-1080zM181 808v-36h71v-40h-72v-36h180v36h-72v40h72v36h-179zM180 668v-112h180v37h-72v75h-108zM252 593h-36v39h36v-39zM180 527v-36h72v-40h-72v-35h108v75h72v36h-180zM324 462v-71h-144v-37h180v108h-36zM252 330v-60h36v25h36v-51h-108
v86h-36v-122h180v122h-108zM180 143v-122h180v122h-180zM324 57h-108v51h108v-51zM180 -3v-36h76l-76 -51v-35h180v35h-111l76 51h35v36h-180z" />
    <glyph glyph-name=".null" horiz-adv-x="0" 
 />
    <glyph glyph-name="nonmarkingreturn" horiz-adv-x="333" 
 />
    <glyph glyph-name="space" unicode=" " horiz-adv-x="200" 
 />
    <glyph glyph-name="exclam" unicode="!" horiz-adv-x="191" 
d="M131 700v-200l-5 -298h-60l-5 298v200h70zM59.5 15q-14.5 15 -14.5 36t14.5 36t35.5 15q22 0 36.5 -15t14.5 -36t-14.5 -36t-36.5 -15q-21 0 -35.5 15z" />
    <glyph glyph-name="quotedbl" unicode="&#x22;" horiz-adv-x="263" 
d="M45 700h63v-283h-63v283zM155 700h63v-283h-63v283z" />
    <glyph glyph-name="numbersign" unicode="#" horiz-adv-x="652" 
d="M607 500h-107l-66 -291h105v-70h-121l-32 -139h-70l32 139h-143l-32 -139h-70l32 139h-90v70h106l66 291h-104v70h120l30 130h70l-30 -130h143l30 130h70l-30 -130h91v-70zM364 209l66 291h-143l-66 -291h143z" />
    <glyph glyph-name="dollar" unicode="$" horiz-adv-x="906" 
d="M682.5 108q-73.5 -59 -196.5 -67v-101h-65v101q-124 6 -197.5 65.5t-73.5 162.5l64 -1q0 -78 55.5 -117.5t151.5 -44.5v314l-12 2q-130 22 -194.5 67.5t-64.5 140.5q0 63 33.5 110t95 73t142.5 27v90h65v-94q104 -13 167.5 -71.5t63.5 -153.5l-63 1q0 68 -46 108t-122 51
v-299l12 -2q93 -16 145.5 -34t82.5 -57t30 -110q0 -102 -73.5 -161zM421 483v292q-95 -2 -151 -39.5t-56 -105.5q0 -62 49.5 -95t145.5 -50zM636 153q56 41 56 115q0 50 -23.5 76.5t-61 38t-109.5 23.5l-12 2v-302q94 6 150 47z" />
    <glyph glyph-name="percent" unicode="%" horiz-adv-x="907" 
d="M128 419q-39 22 -61 61t-22 87t22 87t61 61t86 22q48 0 87.5 -22.5t62 -61.5t22.5 -86q0 -48 -23 -87t-62 -61t-87 -22q-47 0 -86 22zM263 0h-80l390 700h80zM292 489.5q31 30.5 31 77.5q0 46 -31.5 77t-76.5 31q-47 0 -77 -32t-30 -80q0 -45 30.5 -74.5t76.5 -29.5
t77 30.5zM604 22q-39 22 -61 61t-22 87t22 87t61 61t86 22q48 0 87.5 -22.5t62 -61.5t22.5 -86q0 -48 -23 -87t-62 -61t-87 -22q-47 0 -86 22zM769.5 92q31.5 31 31.5 78q0 46 -32 77.5t-77 31.5q-47 0 -77.5 -31.5t-30.5 -79.5q0 -46 31 -76.5t77 -30.5t77.5 31z" />
    <glyph glyph-name="ampersand" unicode="&#x26;" horiz-adv-x="694" 
d="M578 0l-56 85q-44 -42 -99.5 -63.5t-118.5 -21.5q-128 0 -193.5 69t-65.5 182q0 57 15.5 99.5t58.5 83t124 79.5l-188 287h528v-70h-410l349 -535q55 99 55 265h71q0 -104 -22.5 -186.5t-63.5 -140.5l87 -133h-71zM484 144l-203 311q-90 -32 -127.5 -82t-37.5 -122
q0 -81 49 -131t139 -50q112 0 180 74z" />
    <glyph glyph-name="quotesingle" unicode="'" horiz-adv-x="153" 
d="M45 700h63v-283h-63v283z" />
    <glyph glyph-name="parenleft" unicode="(" horiz-adv-x="220" 
d="M161 690q-46 -166 -46 -340q0 -173 46 -340l14 -50h-70l-14 50q-46 167 -46 340q0 174 46 340l14 50h70z" />
    <glyph glyph-name="parenright" unicode=")" horiz-adv-x="220" 
d="M129 690q46 -160 46 -340q0 -178 -46 -340l-14 -50h-70l14 50q46 162 46 340q0 180 -46 340l-14 50h70z" />
    <glyph glyph-name="asterisk" unicode="*" horiz-adv-x="424" 
d="M45 529h105l-76 69l41 40l68 -76v105h58v-105l69 76l40 -40l-76 -69h105v-58h-105l76 -68l-40 -41l-69 76v-105h-58v105l-68 -76l-41 41l76 68h-105v58z" />
    <glyph glyph-name="plus" unicode="+" 
d="M466 324v-70h-175v-176h-70v176h-176v70h176v176h70v-176h175z" />
    <glyph glyph-name="comma" unicode="," horiz-adv-x="280" 
d="M172 102l63 -29l-127 -273l-63 29z" />
    <glyph glyph-name="hyphen" unicode="-" horiz-adv-x="421" 
d="M45 332h331v-70h-331v70z" />
    <glyph glyph-name="period" unicode="." horiz-adv-x="191" 
d="M59.5 15q-14.5 15 -14.5 36t14.5 36t35.5 15q22 0 36.5 -15t14.5 -36t-14.5 -36t-36.5 -15q-21 0 -35.5 15z" />
    <glyph glyph-name="slash" unicode="/" horiz-adv-x="330" 
d="M285 700l-170 -810h-70l170 810h70z" />
    <glyph glyph-name="zero" unicode="0" horiz-adv-x="581" 
d="M161 43q-56 43 -86 122t-30 185t30 185t86 122t130 43t129.5 -43t85.5 -122t30 -185t-30 -185t-85.5 -122t-129.5 -43t-130 43zM423 144q43 72 43 206t-43 206t-132 72q-90 0 -133 -72t-43 -206t43 -206t133 -72q89 0 132 72z" />
    <glyph glyph-name="one" unicode="1" horiz-adv-x="285" 
d="M45 700h195v-700h-70v630h-125v70z" />
    <glyph glyph-name="two" unicode="2" horiz-adv-x="555" 
d="M165.5 178.5q-33.5 -42.5 -44.5 -108.5h389v-70h-465q0 80 18 137t62 102t121 83l77 38q41 20 64.5 36.5t37 42t13.5 64.5q0 63 -36.5 99t-121.5 36q-71 0 -108.5 -38t-37.5 -100h-70q0 96 58 153t158 57q108 0 169 -56t61 -151q0 -74 -42.5 -119.5t-118.5 -84.5l-94 -48
q-56 -30 -89.5 -72.5z" />
    <glyph glyph-name="three" unicode="3" horiz-adv-x="558" 
d="M162 98.5q45 -36.5 121 -36.5q66 0 112 37t46 103q0 71 -51 101t-157 30v70q72 0 112.5 13t56.5 40t16 72q0 55 -38 82.5t-97 27.5q-74 0 -115 -37t-43 -101h-70q5 95 66 152.5t162 57.5q51 0 98.5 -21t78 -62.5t30.5 -98.5q0 -58 -19.5 -97t-75.5 -63q68 -21 93 -59.5
t25 -106.5q0 -69 -33.5 -117t-86.5 -71.5t-110 -23.5q-67 0 -120 25.5t-84 72.5t-34 109h70q2 -62 47 -98.5z" />
    <glyph glyph-name="four" unicode="4" horiz-adv-x="588" 
d="M543 229v-70h-122v-159h-70v159h-306v70l290 471h86v-471h122zM121 229h230v387z" />
    <glyph glyph-name="five" unicode="5" horiz-adv-x="558" 
d="M458 430q55 -63 55 -190q0 -79 -34 -135.5t-87 -85.5t-109 -29q-67 0 -120 25.5t-84 72.5t-34 109h70q2 -62 47 -98.5t121 -36.5q42 0 78 21.5t58 62t22 94.5q0 99 -38 141t-120 42q-76 0 -114.5 -33.5t-47.5 -74.5l-2 -9h-70l67 394h358v-70h-300l-34 -202q53 65 143 65
q120 0 175 -63z" />
    <glyph glyph-name="six" unicode="6" horiz-adv-x="568" 
d="M466 431.5q57 -61.5 57 -184.5q0 -88 -34 -145.5t-88.5 -84.5t-117.5 -27q-77 0 -129 30t-80.5 103.5t-28.5 200.5v75q0 171 63 241t175 70q105 0 160.5 -52.5t55.5 -157.5h-65q0 67 -38.5 103.5t-112.5 36.5q-56 0 -93 -21.5t-56.5 -75.5t-19.5 -148v-10q19 61 63 84.5
t106 23.5q126 0 183 -61.5zM405 105.5q46 43.5 46 141.5q0 89 -41 132.5t-127 43.5q-92 0 -130.5 -41t-38.5 -135q0 -90 43 -137.5t126 -47.5q76 0 122 43.5z" />
    <glyph glyph-name="seven" unicode="7" horiz-adv-x="550" 
d="M505 700l-315 -700h-79l284 630h-350v70h460z" />
    <glyph glyph-name="eight" unicode="8" horiz-adv-x="578" 
d="M80 305.5q35 43.5 113 64.5q-63 21 -90.5 52.5t-27.5 90.5q0 91 57.5 144t156.5 53q103 0 158.5 -53t55.5 -144q0 -60 -27.5 -91t-90.5 -52q77 -21 112.5 -63t35.5 -109q0 -98 -64.5 -153t-179.5 -55q-116 0 -180 54t-64 148q0 70 35 113.5zM181.5 429
q36.5 -26 107.5 -26q70 0 107 26t37 84t-38 91.5t-103 33.5q-70 0 -108.5 -33.5t-38.5 -91.5t36.5 -84zM162.5 95q45.5 -33 126.5 -33t126.5 33t45.5 97q0 141 -172 141t-172 -141q0 -64 45.5 -97z" />
    <glyph glyph-name="nine" unicode="9" horiz-adv-x="548" 
d="M394 680q52 -30 80.5 -103.5t28.5 -200.5v-75q0 -171 -63 -241t-175 -70q-105 0 -160.5 52.5t-55.5 157.5h65q0 -67 38.5 -103.5t112.5 -36.5q56 0 93 21.5t56.5 75.5t19.5 148v10q-19 -61 -63 -84.5t-106 -23.5q-126 0 -183 61.5t-57 184.5q0 88 34 145.5t88.5 84.5
t117.5 27q77 0 129 -30zM395.5 318q38.5 41 38.5 135q0 90 -43 137.5t-126 47.5q-76 0 -122 -43.5t-46 -141.5q0 -89 41 -132.5t127 -43.5q92 0 130.5 41z" />
    <glyph glyph-name="colon" unicode=":" horiz-adv-x="280" 
d="M104.5 15q-14.5 15 -14.5 36t14.5 36t35.5 15q22 0 36.5 -15t14.5 -36t-14.5 -36t-36.5 -15q-21 0 -35.5 15zM104.5 413q-14.5 15 -14.5 36t14.5 36t35.5 15q22 0 36.5 -15t14.5 -36t-14.5 -36t-36.5 -15q-21 0 -35.5 15z" />
    <glyph glyph-name="semicolon" unicode=";" horiz-adv-x="280" 
d="M172 102l63 -29l-127 -273l-63 29zM109.5 413q-14.5 15 -14.5 36t14.5 36t35.5 15q22 0 36.5 -15t14.5 -36t-14.5 -36t-36.5 -15q-21 0 -35.5 15z" />
    <glyph glyph-name="less" unicode="&#x3c;" 
d="M466 474v-70l-323 -115l323 -115v-70l-421 150v70z" />
    <glyph glyph-name="equal" unicode="=" 
d="M45 414h421v-70h-421v70zM45 234h421v-70h-421v70z" />
    <glyph glyph-name="greater" unicode="&#x3e;" 
d="M45 474l421 -150v-70l-421 -150v70l323 115l-323 115v70z" />
    <glyph glyph-name="question" unicode="?" horiz-adv-x="499" 
d="M103.5 643.5q58.5 56.5 150.5 56.5q54 0 99.5 -18.5t73 -54.5t27.5 -84q0 -54 -29.5 -93t-94.5 -72l-27 -14q-25 -13 -36 -28t-11 -48v-1l-6 -85h-59l-5 85v1q0 49 24 80t93 66l25 13q33 17 44.5 38t11.5 58q0 42 -34 63.5t-96 21.5q-63 0 -101 -37.5t-38 -110.5h-70
q0 107 58.5 163.5zM184.5 15q-14.5 15 -14.5 36t14.5 36t35.5 15q22 0 36.5 -15t14.5 -36t-14.5 -36t-36.5 -15q-21 0 -35.5 15z" />
    <glyph glyph-name="at" unicode="@" horiz-adv-x="803" 
d="M597.5 585.5q77.5 -37.5 119 -104t41.5 -151.5v-148q0 -58 -39 -84t-86 -26q-35 0 -70.5 20.5t-44.5 65.5q-11 -46 -39.5 -69.5t-75.5 -23.5q-50 0 -90 22t-63 63.5t-23 99.5t23 99.5t63 63.5t90 22q87 0 113 -85v78h70v-236q0 -29 11.5 -39.5t35.5 -10.5q25 0 38 11
t13 39l-1 138q-1 100 -71 159.5t-194 59.5q-87 0 -155 -40t-106 -111t-38 -159q0 -82 39.5 -147.5t107.5 -102.5t152 -37q86 0 155 40l37 -63q-87 -51 -195 -51q-104 0 -188.5 48.5t-133 134t-48.5 189.5q0 105 48.5 190t133 134t188.5 49q105 0 182.5 -37.5zM484 157.5
q32 23.5 32 92.5t-32 92.5t-81 23.5q-46 0 -76 -29t-30 -87t30 -87t76 -29q49 0 81 23.5z" />
    <glyph glyph-name="A" unicode="A" horiz-adv-x="701" 
d="M586 0l-70 189h-325l-76 -189h-70l280 700h70l261 -700h-70zM219 259h270l-130 350z" />
    <glyph glyph-name="B" unicode="B" horiz-adv-x="630" 
d="M498.5 353.5q40.5 -16.5 63.5 -52t23 -97.5q0 -108 -69 -156t-218 -48h-253v700h253q111 0 168 -43t57 -130q0 -46 -11 -72.5t-38 -43.5t-78 -31q62 -10 102.5 -26.5zM115 415h183q83 0 119 26.5t36 85.5q0 58 -35 80.5t-120 22.5h-183v-215zM462 100q53 30 53 104
q0 68 -55.5 104.5t-161.5 36.5h-183v-275h183q111 0 164 30z" />
    <glyph glyph-name="C" unicode="C" horiz-adv-x="708" 
d="M504.5 593.5q-58.5 46.5 -144.5 46.5q-74 0 -129.5 -35t-85.5 -100.5t-30 -154.5t30 -154.5t85.5 -100.5t129.5 -35q89 0 148 49.5t85 140.5h70q-27 -121 -107 -190.5t-196 -69.5q-92 0 -163.5 44.5t-111.5 126t-40 189.5t40 189.5t111.5 126t163.5 44.5
q113 0 192.5 -66.5t108.5 -183.5h-70q-28 87 -86.5 133.5z" />
    <glyph glyph-name="D" unicode="D" horiz-adv-x="650" 
d="M458 658.5q71 -41.5 109 -120.5t38 -188t-38 -188t-109 -120.5t-167 -41.5h-246v700h246q96 0 167 -41.5zM472 142.5q63 72.5 63 207.5t-63 207.5t-181 72.5h-176v-560h176q118 0 181 72.5z" />
    <glyph glyph-name="E" unicode="E" horiz-adv-x="580" 
d="M535 630h-420v-245h290v-70h-290v-245h420v-70h-490v700h490v-70z" />
    <glyph glyph-name="F" unicode="F" horiz-adv-x="580" 
d="M535 630h-420v-245h290v-70h-290v-315h-70v700h490v-70z" />
    <glyph glyph-name="G" unicode="G" horiz-adv-x="719" 
d="M634 160.5q-40 -81.5 -111.5 -126t-162.5 -44.5q-92 0 -163.5 44.5t-111.5 126t-40 189.5t40 189.5t111.5 126t163.5 44.5q113 0 194 -67t108 -183h-66q-25 84 -87 131t-149 47q-74 0 -129 -34.5t-84.5 -99.5t-29.5 -154t29.5 -154t84.5 -99.5t129 -34.5q96 0 158.5 57.5
t78.5 160.5h-237v70h314q0 -108 -40 -189.5z" />
    <glyph glyph-name="H" unicode="H" horiz-adv-x="650" 
d="M535 700h70v-700h-70v315h-420v-315h-70v700h70v-315h420v315z" />
    <glyph glyph-name="I" unicode="I" horiz-adv-x="160" 
d="M115 0h-70v700h70v-700z" />
    <glyph glyph-name="J" unicode="J" horiz-adv-x="374" 
d="M329 700v-390q0 -165 -73.5 -237.5t-210.5 -72.5v70q73 0 119.5 21t70.5 73.5t24 145.5v390h70z" />
    <glyph glyph-name="K" unicode="K" horiz-adv-x="610" 
d="M565 700l-266 -302l266 -398h-89l-227 341l-134 -152v-189h-70v700h70v-420l361 420h89z" />
    <glyph glyph-name="L" unicode="L" horiz-adv-x="580" 
d="M115 70h420v-70h-490v700h70v-630z" />
    <glyph glyph-name="M" unicode="M" horiz-adv-x="770" 
d="M655 700h70v-700h-70v521l-230 -521h-70l-240 526v-526h-70v700h70l274 -620z" />
    <glyph glyph-name="N" unicode="N" horiz-adv-x="651" 
d="M536 700h70v-700h-70l-421 583v-583h-70v700h70l421 -583v583z" />
    <glyph glyph-name="O" unicode="O" horiz-adv-x="719" 
d="M196.5 34.5q-71.5 44.5 -111.5 126t-40 189.5t40 189.5t111.5 126t163.5 44.5q91 0 162.5 -44.5t111.5 -126t40 -189.5t-40 -189.5t-111.5 -126t-162.5 -44.5q-92 0 -163.5 44.5zM488.5 96.5q54.5 34.5 84 99.5t29.5 154t-29.5 154t-84 99.5t-128.5 34.5t-129 -34.5
t-84.5 -99.5t-29.5 -154t29.5 -154t84.5 -99.5t129 -34.5t128.5 34.5z" />
    <glyph glyph-name="P" unicode="P" horiz-adv-x="630" 
d="M510 650.5q75 -49.5 75 -154.5q0 -211 -287 -211h-183v-285h-70v700h253q137 0 212 -49.5zM461.5 385.5q51.5 30.5 51.5 110.5q0 74 -52 104t-163 30h-183v-275h183q112 0 163.5 30.5z" />
    <glyph glyph-name="Q" unicode="Q" horiz-adv-x="719" 
d="M637 166.5q-37 -79.5 -103 -124.5l91 -152h-79l-70 121q-54 -21 -116 -21q-92 0 -163.5 44.5t-111.5 126t-40 189.5t40 189.5t111.5 126t163.5 44.5q91 0 162.5 -44.5t111.5 -126t40 -189.5q0 -104 -37 -183.5zM439 74l-93 160h73l79 -131q50 36 77 99t27 148
q0 89 -29.5 154t-84 99.5t-128.5 34.5t-129 -34.5t-84.5 -99.5t-29.5 -154t29.5 -154t84.5 -99.5t129 -34.5q43 0 79 12z" />
    <glyph glyph-name="R" unicode="R" horiz-adv-x="630" 
d="M408 295l177 -295h-79l-167 286q-13 -1 -41 -1h-183v-285h-70v700h253q137 0 212 -49.5t75 -154.5q0 -166 -177 -201zM298 355q112 0 163.5 30.5t51.5 110.5q0 74 -52 104t-163 30h-183v-275h183z" />
    <glyph glyph-name="S" unicode="S" horiz-adv-x="620" 
d="M164 98.5q47 -28.5 144 -28.5q96 0 145.5 29.5t49.5 100.5q0 43 -16.5 64.5t-43.5 29.5t-93 20l-78 14q-113 20 -170 62.5t-57 125.5q0 85 66.5 134.5t176.5 49.5q72 0 129.5 -23.5t90.5 -68.5t33 -108h-72q0 70 -47.5 100t-133.5 30t-128.5 -26.5t-42.5 -87.5
q0 -38 17 -60t49.5 -35t88.5 -23l78 -14q79 -14 125.5 -32t73 -54t26.5 -98q0 -95 -73.5 -147.5t-193.5 -52.5t-191.5 52.5t-71.5 147.5h72q0 -73 47 -101.5z" />
    <glyph glyph-name="T" unicode="T" horiz-adv-x="650" 
d="M605 700v-70h-245v-630h-70v630h-245v70h560z" />
    <glyph glyph-name="U" unicode="U" horiz-adv-x="658" 
d="M613 700v-390q0 -168 -78 -239t-206 -71t-206 71t-78 239v390h70v-390q0 -133 57.5 -186.5t156.5 -53.5t156.5 53.5t57.5 186.5v390h70z" />
    <glyph glyph-name="V" unicode="V" horiz-adv-x="654" 
d="M537 700h72l-240 -700h-74l-250 700h72l214 -600z" />
    <glyph glyph-name="W" unicode="W" horiz-adv-x="1066" 
d="M949 700h72l-220 -700h-74l-193 588l-185 -588h-74l-230 700h72l194 -591l186 591h72l194 -591z" />
    <glyph glyph-name="X" unicode="X" horiz-adv-x="650" 
d="M605 700l-237 -350l237 -350h-85l-195 287l-195 -287h-85l238 350l-238 350h85l195 -287l195 287h85z" />
    <glyph glyph-name="Y" unicode="Y" horiz-adv-x="660" 
d="M540 700h75l-240 -510v-190h-80v190l-250 510h75l214 -428z" />
    <glyph glyph-name="Z" unicode="Z" horiz-adv-x="649" 
d="M604 700v-70l-470 -560h470v-70h-559v70l470 560h-470v70h559z" />
    <glyph glyph-name="bracketleft" unicode="[" horiz-adv-x="265" 
d="M220 730h-105v-760h105v-70h-175v900h175v-70z" />
    <glyph glyph-name="backslash" unicode="\" horiz-adv-x="330" 
d="M115 700l170 -810h-70l-170 810h70z" />
    <glyph glyph-name="bracketright" unicode="]" horiz-adv-x="265" 
d="M220 800v-900h-175v70h105v760h-105v70h175z" />
    <glyph glyph-name="asciicircum" unicode="^" horiz-adv-x="460" 
d="M415 469h-70l-114 177l-116 -177h-70l151 231h70z" />
    <glyph glyph-name="underscore" unicode="_" 
d="M45 70h421v-70h-421v70z" />
    <glyph glyph-name="a" unicode="a" horiz-adv-x="498" 
d="M408.5 451q44.5 -49 44.5 -166v-285h-70v137q-17 -79 -59.5 -113t-106.5 -34q-77 0 -124.5 44t-47.5 114q0 47 21.5 85.5t61 61t89.5 22.5h165q-5 66 -32 89t-84 23q-124 0 -124 -94h-70q0 80 52 122.5t142 42.5q98 0 142.5 -49zM301 84.5q38 23.5 60 66t22 96.5h-166
q-53 0 -77.5 -27t-24.5 -72q0 -87 102 -87q46 0 84 23.5z" />
    <glyph glyph-name="b" unicode="b" horiz-adv-x="539" 
d="M389.5 479.5q49.5 -30.5 77 -89t27.5 -140.5t-27.5 -140.5t-77 -89t-114.5 -30.5q-64 0 -103 30t-57 89v-109h-70v700h70v-309q18 59 57 89t103 30q65 0 114.5 -30.5zM382 108q42 49 42 142t-42 142t-107 49q-73 0 -116.5 -40.5t-43.5 -150.5t43.5 -150.5t116.5 -40.5
q65 0 107 49z" />
    <glyph glyph-name="c" unicode="c" horiz-adv-x="534" 
d="M105 58q-60 68 -60 192t60 192t165 68q89 0 146 -48.5t73 -139.5h-70q-14 59 -52.5 88.5t-96.5 29.5q-72 0 -113.5 -48t-41.5 -142t41.5 -142t113.5 -48q58 0 96.5 29t52.5 87h70q-17 -90 -73.5 -138t-145.5 -48q-105 0 -165 68z" />
    <glyph glyph-name="d" unicode="d" horiz-adv-x="539" 
d="M494 700v-700h-70v109q-18 -59 -57 -89t-103 -30q-65 0 -114.5 30.5t-77 89t-27.5 140.5t27.5 140.5t77 89t114.5 30.5q64 0 103 -30t57 -89v309h70zM380.5 99.5q43.5 40.5 43.5 150.5t-43.5 150.5t-116.5 40.5q-65 0 -107 -49t-42 -142t42 -142t107 -49q73 0 116.5 40.5
z" />
    <glyph glyph-name="e" unicode="e" horiz-adv-x="540" 
d="M164 99q41 -40 106 -40q57 0 95 29.5t52 87.5h72q-15 -85 -73.5 -135.5t-145.5 -50.5q-68 0 -119 32t-78.5 91t-27.5 137t27.5 137t78.5 91t119 32q105 0 165 -75.5t60 -216.5h-379q7 -79 48 -119zM421 282q-19 159 -151 159q-65 0 -106 -40t-48 -119h305z" />
    <glyph glyph-name="f" unicode="f" horiz-adv-x="385" 
d="M239.5 618.5q-30.5 -12.5 -37.5 -37.5t-7 -81h130v-60h-130v-440h-70v440h-80v60h80q1 73 17 115t62 63.5t136 21.5v-69q-70 0 -100.5 -12.5z" />
    <glyph glyph-name="g" unicode="g" horiz-adv-x="529" 
d="M484 500v-430q0 -145 -56 -207.5t-159 -62.5q-99 0 -157 51t-58 149h70q0 -131 145 -131q70 0 107.5 42.5t37.5 158.5v39q-18 -59 -57 -89t-103 -30q-97 0 -153 68t-56 192t56 192t153 68q64 0 103 -30t57 -89v109h70zM370.5 99.5q43.5 40.5 43.5 150.5t-43.5 150.5
t-116.5 40.5q-64 0 -101.5 -48.5t-37.5 -142.5t37.5 -142.5t101.5 -48.5q73 0 116.5 40.5z" />
    <glyph glyph-name="h" unicode="h" horiz-adv-x="508" 
d="M418 448q45 -52 45 -163v-285h-70v285q0 76 -31 113t-86 37q-73 0 -117 -35t-44 -115v-285h-70v700h70v-312q33 112 161 112q97 0 142 -52z" />
    <glyph glyph-name="i" unicode="i" horiz-adv-x="180" 
d="M58.5 624q-13.5 13 -13.5 32q0 18 13.5 31t31.5 13t31.5 -13t13.5 -31q0 -19 -13.5 -32t-31.5 -13t-31.5 13zM55 500h70v-500h-70v500z" />
    <glyph glyph-name="j" unicode="j" horiz-adv-x="315" 
d="M193.5 624q-13.5 13 -13.5 32q0 18 13.5 31t31.5 13t31.5 -13t13.5 -31q0 -19 -13.5 -32t-31.5 -13t-31.5 13zM190 500h70v-500q-1 -98 -59.5 -149t-155.5 -51v69q67 0 106 31.5t39 99.5v500z" />
    <glyph glyph-name="k" unicode="k" horiz-adv-x="508" 
d="M365 0l-183 206l-67 -71v-135h-70v700h70v-463l244 263h98l-228 -243l234 -257h-98z" />
    <glyph glyph-name="l" unicode="l" horiz-adv-x="160" 
d="M45 700h70v-700h-70v700z" />
    <glyph glyph-name="m" unicode="m" horiz-adv-x="796" 
d="M682 479q37 -21 53 -67t16 -127v-285h-70v285q0 84 -23.5 117t-78.5 33q-62 0 -104 -35.5t-42 -114.5v-285h-70v285q0 83 -24.5 116.5t-77.5 33.5q-62 0 -104 -35.5t-42 -114.5v-285h-70v500h70v-111q33 111 146 111q76 0 115.5 -31t50.5 -102q14 69 53.5 101t98.5 32
q66 0 103 -21z" />
    <glyph glyph-name="n" unicode="n" horiz-adv-x="508" 
d="M418 448q45 -52 45 -163v-285h-70v285q0 76 -31 113t-86 37q-73 0 -117 -35t-44 -115v-285h-70v500h70v-112q33 112 161 112q97 0 142 -52z" />
    <glyph glyph-name="o" unicode="o" horiz-adv-x="540" 
d="M151 22q-51 32 -78.5 91t-27.5 137t27.5 137t78.5 91t119 32t119 -32t78.5 -91t27.5 -137t-27.5 -137t-78.5 -91t-119 -32t-119 32zM383.5 107q41.5 48 41.5 143t-41.5 143t-113.5 48t-113.5 -48t-41.5 -143t41.5 -143t113.5 -48t113.5 48z" />
    <glyph glyph-name="p" unicode="p" horiz-adv-x="539" 
d="M389.5 479.5q49.5 -30.5 77 -89t27.5 -140.5t-27.5 -140.5t-77 -89t-114.5 -30.5q-64 0 -103 30t-57 89v-309h-70v700h70v-109q18 59 57 89t103 30q65 0 114.5 -30.5zM382 108q42 49 42 142t-42 142t-107 49q-73 0 -116.5 -40.5t-43.5 -150.5t43.5 -150.5t116.5 -40.5
q65 0 107 49z" />
    <glyph glyph-name="q" unicode="q" horiz-adv-x="539" 
d="M494 500v-700h-70v309q-18 -59 -57 -89t-103 -30q-65 0 -114.5 30.5t-77 89t-27.5 140.5t27.5 140.5t77 89t114.5 30.5q64 0 103 -30t57 -89v109h70zM380.5 99.5q43.5 40.5 43.5 150.5t-43.5 150.5t-116.5 40.5q-65 0 -107 -49t-42 -142t42 -142t107 -49q73 0 116.5 40.5
z" />
    <glyph glyph-name="r" unicode="r" horiz-adv-x="331" 
d="M256 496.5q13 -3.5 30 -14.5v-70q-16 11 -30 14.5t-34 3.5q-26 0 -50.5 -15.5t-40.5 -48t-16 -81.5v-285h-70v500h70v-113q15 53 44 83t63 30q21 0 34 -3.5z" />
    <glyph glyph-name="s" unicode="s" horiz-adv-x="496" 
d="M151.5 85q36.5 -30 106.5 -30q123 0 123 77q0 38 -22 54t-80 27l-51 10q-89 15 -132 50.5t-43 99.5q0 66 50.5 101.5t134.5 35.5q89 0 138.5 -47.5t49.5 -127.5h-70q0 110 -118 110q-115 0 -115 -72q0 -37 25 -56.5t80 -28.5l49 -8q92 -15 133 -48.5t41 -99.5
q0 -71 -51.5 -106.5t-141.5 -35.5q-102 0 -157.5 47t-55.5 133h70q0 -55 36.5 -85z" />
    <glyph glyph-name="t" unicode="t" horiz-adv-x="350" 
d="M195 440v-240q0 -59 9 -86t31.5 -36t69.5 -9v-69q-67 0 -105.5 18t-56 61.5t-18.5 120.5v240h-80v60h80v160l70 40v-200h110v-60h-110z" />
    <glyph glyph-name="u" unicode="u" horiz-adv-x="508" 
d="M463 500v-500h-70v112q-33 -112 -161 -112q-97 0 -142 52t-45 163v285h70v-285q0 -76 31 -113t86 -37q73 0 117 35t44 115v285h70z" />
    <glyph glyph-name="v" unicode="v" horiz-adv-x="502" 
d="M387 500h70l-169 -500h-75l-168 500h70l128 -392l7 -17l7 17z" />
    <glyph glyph-name="w" unicode="w" horiz-adv-x="758" 
d="M643 500h70l-149 -500h-75l-110 386l-111 -386h-75l-148 500h70l108 -383l3 -8l120 391h65l119 -390l3 7z" />
    <glyph glyph-name="x" unicode="x" horiz-adv-x="508" 
d="M463 500l-169 -250l169 -250h-80l-129 191l-129 -191h-80l169 250l-169 250h80l129 -191l129 191h80z" />
    <glyph glyph-name="y" unicode="y" horiz-adv-x="531" 
d="M486 500l-183 -500q-24 -67 -50 -109t-65.5 -66.5t-99.5 -24.5v69q54 0 84 30t56 101l-183 500h75l146 -398l145 398h75z" />
    <glyph glyph-name="z" unicode="z" horiz-adv-x="493" 
d="M448 500l-281 -435h270v-65h-392l281 435h-271v65h393z" />
    <glyph glyph-name="braceleft" unicode="{" horiz-adv-x="336" 
d="M117.5 271q17.5 -5 24 -15.5t6.5 -31.5v-217q0 -66 30.5 -96t94.5 -30h18v66h-18q-34 0 -47 12t-13 48v217q0 37 -8.5 55.5t-30 26t-64.5 7.5h-15v21h15q43 0 64.5 7.5t30 26t8.5 55.5v217q0 36 13 48t47 12h18v66h-18q-64 0 -94.5 -30t-30.5 -96v-217q0 -21 -6.5 -31.5
t-24 -15.5t-52.5 -5h-20v-95h20q35 0 52.5 -5z" />
    <glyph glyph-name="bar" unicode="|" horiz-adv-x="160" 
d="M45 700h70v-844h-70v844z" />
    <glyph glyph-name="braceright" unicode="}" horiz-adv-x="336" 
d="M271 371q-35 0 -52.5 5t-24 15.5t-6.5 31.5v217q0 66 -30.5 96t-94.5 30h-18v-66h18q34 0 47 -12t13 -48v-217q0 -37 8.5 -55.5t30 -26t64.5 -7.5h15v-21h-15q-43 0 -64.5 -7.5t-30 -26t-8.5 -55.5v-217q0 -36 -13 -48t-47 -12h-18v-66h18q64 0 94.5 30t30.5 96v217
q0 21 6.5 31.5t24 15.5t52.5 5h20v95h-20z" />
    <glyph glyph-name="asciitilde" unicode="~" 
d="M127 333q57 0 129 -24q60 -20 116 -20q59 0 94 25v-70q-37 -26 -94 -26q-51 0 -116 21q-74 24 -129 24q-47 0 -82 -19v70q33 19 82 19z" />
    <glyph glyph-name="exclamdown" unicode="&#xa1;" horiz-adv-x="191" 
d="M131.5 485q14.5 -15 14.5 -36t-14.5 -36t-36.5 -15q-21 0 -35.5 15t-14.5 36t14.5 36t35.5 15q22 0 36.5 -15zM61 -200v200l5 298h60l5 -298v-200h-70z" />
    <glyph glyph-name="cent" unicode="&#xa2;" horiz-adv-x="534" 
d="M376.5 198.5q30.5 28.5 42.5 78.5h70q-16 -82 -64.5 -129.5t-124.5 -55.5v-172h-65v173q-90 11 -140 78t-50 180t50 180t140 78v191h65v-191q76 -8 125 -55.5t64 -130.5h-70q-23 102 -119 116v-376q46 7 76.5 35.5zM146.5 222q31.5 -47 88.5 -58v374q-57 -11 -88.5 -58
t-31.5 -129t31.5 -129z" />
    <glyph glyph-name="sterling" unicode="&#xa3;" horiz-adv-x="919" 
d="M769 1l-617 -1h-2v71q111 0 157 40t46 115q0 63 -34 178h-169v70h148q-23 86 -23 152q0 126 81 190t247 64q78 0 144 -21v-70q-60 30 -144 30q-262 0 -262 -201q0 -60 25 -144l329 1v-70l-306 -1q34 -109 34 -184q0 -94 -51 -149h397v-70z" />
    <glyph glyph-name="currency" unicode="&#xa4;" horiz-adv-x="758" 
d="M589 196l124 -124l-46 -46l-124 124q-71 -54 -164 -54q-47 0 -88.5 14t-75.5 40l-124 -124l-46 46l124 124q-26 34 -40 75.5t-14 88.5t14 88.5t40 75.5l-124 124l46 46l124 -124q34 26 75.5 40t88.5 14q46 0 88 -14.5t75 -40.5l125 125l46 -46l-125 -125q26 -33 40.5 -75
t14.5 -88q0 -93 -54 -164zM210.5 261q25.5 -44 69.5 -69.5t99 -25.5q54 0 98.5 25.5t70 69.5t25.5 99t-25.5 99t-70 69.5t-98.5 25.5q-55 0 -99 -25.5t-69.5 -69.5t-25.5 -99t25.5 -99z" />
    <glyph glyph-name="yen" unicode="&#xa5;" horiz-adv-x="986" 
d="M836 880l-252 -537h176v-70h-209l-16 -34v-26h225v-70h-225v-143h-71v142h-238v70h238v27l-16 33h-222v70h187l-263 538h79l269 -537l259 537h79z" />
    <glyph glyph-name="brokenbar" unicode="&#xa6;" horiz-adv-x="160" 
d="M115 700v-362h-70v362h70zM115 218v-362h-70v362h70z" />
    <glyph glyph-name="section" unicode="&#xa7;" horiz-adv-x="488" 
d="M64 412.5q19 29.5 58 46.5q-40 19 -58.5 46.5t-18.5 67.5q0 66 50.5 101.5t134.5 35.5q96 0 147 -47t51 -128h-70q0 53 -30 81.5t-98 28.5q-115 0 -115 -72q0 -44 23 -63.5t72 -24.5l49 -5q97 -10 140.5 -44t43.5 -98q0 -45 -19 -75t-58 -47q40 -19 58.5 -46.5
t18.5 -67.5q0 -66 -50.5 -101t-134.5 -35q-96 0 -147 46.5t-51 127.5h70q0 -53 30 -81.5t98 -28.5q115 0 115 72q0 44 -23 63.5t-72 24.5l-49 5q-97 10 -140.5 44.5t-43.5 98.5q0 45 19 74.5zM142 273q27 -24 98 -24q76 0 104.5 23.5t28.5 65.5q0 41 -28 65t-101 24
t-101 -24t-28 -65t27 -65z" />
    <glyph glyph-name="copyright" unicode="&#xa9;" horiz-adv-x="1086" 
d="M288.5 -73q-113.5 65 -178.5 178.5t-65 254.5t65 254.5t178.5 178.5t254.5 65q138 0 252 -66t180 -180t66 -252q0 -142 -65.5 -255.5t-179.5 -178t-253 -64.5q-141 0 -254.5 65zM756 -8.5q97 54.5 153.5 151t56.5 217.5q0 119 -56 216t-153 152t-214 55
q-120 0 -216.5 -55t-151.5 -151.5t-55 -216.5t55 -216.5t151.5 -151.5t216.5 -55q116 0 213 54.5zM381 168q-60 68 -60 192t60 192t165 68q89 0 146 -48.5t73 -139.5h-70q-14 59 -52.5 88.5t-96.5 29.5q-72 0 -113.5 -48t-41.5 -142t41.5 -142t113.5 -48q58 0 96.5 29
t52.5 87h70q-17 -90 -73.5 -138t-145.5 -48q-105 0 -165 68z" />
    <glyph glyph-name="guillemotleft" unicode="&#xab;" horiz-adv-x="460" 
d="M345 501h75l-170 -200l170 -199h-75l-170 199zM215 501h75l-170 -200l170 -199h-75l-170 199z" />
    <glyph glyph-name="logicalnot" unicode="&#xac;" 
d="M45 324h421v-324h-70v254h-351v70z" />
    <glyph glyph-name="registered" unicode="&#xae;" horiz-adv-x="994" 
d="M266 -33q-103 59 -162 162t-59 231t59 231t162 162t231 59q125 0 228.5 -59.5t163.5 -163.5t60 -229q0 -128 -59.5 -231.5t-163 -162t-229.5 -58.5q-128 0 -231 59zM687 30.5q87 48.5 137.5 135t50.5 194.5q0 106 -50.5 192.5t-137 136t-190.5 49.5q-107 0 -193 -49.5
t-135.5 -136t-49.5 -192.5q0 -107 49.5 -193t136 -135.5t192.5 -49.5q103 0 190 48.5zM497 565q87 0 146.5 -40t59.5 -116q0 -51 -26 -86t-71 -54l80 -134h-92l-67 115l-142 -1v-114h-74v430h186zM597.5 341q31.5 19 31.5 68q0 46 -32 64t-100 18h-112v-169h112
q69 0 100.5 19z" />
    <glyph glyph-name="degree" unicode="&#xb0;" horiz-adv-x="292" 
d="M74 549q-29 29 -29 72t29 72t72 29q42 0 71.5 -29t29.5 -72q0 -44 -29 -72.5t-72 -28.5t-72 29zM183.5 583q15.5 15 15.5 38q0 22 -15.5 37.5t-37.5 15.5t-37.5 -15t-15.5 -38q0 -22 15.5 -37.5t37.5 -15.5t37.5 15z" />
    <glyph glyph-name="plusminus" unicode="&#xb1;" 
d="M291 364h175v-70h-175v-176h-70v176h-176v70h176v176h70v-176zM45 0v70h421v-70h-421z" />
    <glyph glyph-name="paragraph" unicode="&#xb6;" horiz-adv-x="481" 
d="M67 617q22 39 61 61t86 22h70v-800h-70v460q-47 0 -86 22t-61 61t-22 87t22 87zM366 700h70v-800h-70v800z" />
    <glyph glyph-name="periodcentered" unicode="&#xb7;" horiz-adv-x="191" 
d="M59.5 209q-14.5 15 -14.5 36t14.5 36t35.5 15q22 0 36.5 -15t14.5 -36t-14.5 -36t-36.5 -15q-21 0 -35.5 15z" />
    <glyph glyph-name="guillemotright" unicode="&#xbb;" horiz-adv-x="460" 
d="M115 102h-75l170 199l-170 200h75l170 -200zM245 102h-75l170 199l-170 200h75l170 -200z" />
    <glyph glyph-name="questiondown" unicode="&#xbf;" horiz-adv-x="536" 
d="M256.5 485q14.5 -15 14.5 -36t-14.5 -36t-36.5 -15q-21 0 -35.5 15t-14.5 36t14.5 36t35.5 15q22 0 36.5 -15zM115 20q0 -73 38 -110.5t101 -37.5q62 0 96 21.5t34 63.5q0 37 -11.5 58t-44.5 38l-25 13q-69 35 -93 66t-24 80v1l5 85h59l6 -85v-1q0 -33 11 -48t36 -28
l27 -14q65 -33 94.5 -72t29.5 -93q0 -48 -27.5 -84t-73 -54.5t-99.5 -18.5q-92 0 -150.5 56.5t-58.5 163.5h70z" />
    <glyph glyph-name="multiply" unicode="&#xd7;" horiz-adv-x="447" 
d="M402 413l-124 -124l124 -124l-50 -50l-124 124l-124 -125l-50 50l125 124l-125 125l50 49l125 -124l124 124z" />
    <glyph glyph-name="divide" unicode="&#xf7;" 
d="M45 324h421v-70h-421v70zM219.5 413q-14.5 15 -14.5 36t14.5 36t35.5 15q22 0 36.5 -15t14.5 -36t-14.5 -36t-36.5 -15q-21 0 -35.5 15zM219.5 87q-14.5 15 -14.5 36t14.5 36t35.5 15q22 0 36.5 -15t14.5 -36t-14.5 -36t-36.5 -15q-21 0 -35.5 15z" />
    <glyph glyph-name="uni02BC" unicode="&#x2bc;" horiz-adv-x="203" 
d="M45 700h113l-40 -283h-73v283z" />
    <glyph glyph-name="uni0401" unicode="&#x401;" horiz-adv-x="580" 
d="M212.5 804q-13.5 13 -13.5 32q0 18 13.5 31t31.5 13t31.5 -13t13.5 -31q0 -19 -13.5 -32t-31.5 -13t-31.5 13zM332.5 804q-13.5 13 -13.5 32q0 18 13.5 31t31.5 13t31.5 -13t13.5 -31q0 -19 -13.5 -32t-31.5 -13t-31.5 13zM535 630h-420v-245h290v-70h-290v-245h420v-70
h-490v700h490v-70z" />
    <glyph glyph-name="uni0404" unicode="&#x404;" horiz-adv-x="708" 
d="M663 250q-27 -121 -107 -190.5t-196 -69.5q-92 0 -163.5 44.5t-111.5 126t-40 189.5t40 189.5t111.5 126t163.5 44.5q113 0 192.5 -66.5t108.5 -183.5h-70q-28 87 -86.5 133.5t-144.5 46.5q-104 0 -169.5 -68t-74.5 -187h244v-70h-244q9 -119 74.5 -187t169.5 -68
q89 0 148 49.5t85 140.5h70z" />
    <glyph glyph-name="uni0406" unicode="&#x406;" horiz-adv-x="160" 
d="M115 0h-70v700h70v-700z" />
    <glyph glyph-name="uni0407" unicode="&#x407;" horiz-adv-x="300" 
d="M58.5 804q-13.5 13 -13.5 32q0 18 13.5 31t31.5 13t31.5 -13t13.5 -31q0 -19 -13.5 -32t-31.5 -13t-31.5 13zM178.5 804q-13.5 13 -13.5 32q0 18 13.5 31t31.5 13t31.5 -13t13.5 -31q0 -19 -13.5 -32t-31.5 -13t-31.5 13zM114 0v700h70v-700h-70z" />
    <glyph glyph-name="uni0410" unicode="&#x410;" horiz-adv-x="701" 
d="M586 0l-70 189h-325l-76 -189h-70l280 700h70l261 -700h-70zM219 259h270l-130 350z" />
    <glyph glyph-name="uni0411" unicode="&#x411;" horiz-adv-x="630" 
d="M585 204q0 -105 -75 -154.5t-212 -49.5h-253v700h490v-70h-420v-215h183q287 0 287 -211zM461 100q52 30 52 104q0 80 -51.5 110.5t-163.5 30.5h-183v-275h183q111 0 163 30z" />
    <glyph glyph-name="uni0412" unicode="&#x412;" horiz-adv-x="630" 
d="M498.5 353.5q40.5 -16.5 63.5 -52t23 -97.5q0 -108 -69 -156t-218 -48h-253v700h253q111 0 168 -43t57 -130q0 -46 -11 -72.5t-38 -43.5t-78 -31q62 -10 102.5 -26.5zM115 415h183q83 0 119 26.5t36 85.5q0 58 -35 80.5t-120 22.5h-183v-215zM462 100q53 30 53 104
q0 68 -55.5 104.5t-161.5 36.5h-183v-275h183q111 0 164 30z" />
    <glyph glyph-name="uni0413" unicode="&#x413;" horiz-adv-x="580" 
d="M535 700v-70h-420v-630h-70v700h490z" />
    <glyph glyph-name="uni0414" unicode="&#x414;" horiz-adv-x="790" 
d="M745 70v-270h-70v200h-560v-200h-70v270h70q47 0 67 30t26.5 114.5t6.5 285.5v200h460v-630h70zM605 70v560h-320v-130q0 -189 -7.5 -285t-30.5 -145h358z" />
    <glyph glyph-name="uni0415" unicode="&#x415;" horiz-adv-x="580" 
d="M535 630h-420v-245h290v-70h-290v-245h420v-70h-490v700h490v-70z" />
    <glyph glyph-name="uni0416" unicode="&#x416;" horiz-adv-x="1040" 
d="M995 700l-298 -350l298 -350h-90l-259 315h-91v-315h-70v315h-91l-259 -315h-90l298 350l-298 350h90l259 -315h91v315h70v-315h91l259 315h90z" />
    <glyph glyph-name="uni0417" unicode="&#x417;" horiz-adv-x="574" 
d="M490.5 317.5q38.5 -40.5 38.5 -113.5q0 -98 -71.5 -151t-185.5 -53q-103 0 -165 55t-62 149h72q0 -69 38.5 -101t116.5 -33q90 0 137.5 30.5t47.5 103.5q0 63 -51 97t-124 34h-73v70h73q69 0 107 31.5t38 90.5q0 55 -36 79t-119 24q-74 0 -109.5 -27t-35.5 -76h-72
q0 78 58 125.5t159 47.5q112 0 169.5 -41.5t57.5 -131.5q0 -55 -30.5 -97t-92.5 -60q76 -12 114.5 -52.5z" />
    <glyph glyph-name="uni0418" unicode="&#x418;" horiz-adv-x="651" 
d="M536 700h70v-700h-70v583l-421 -583h-70v700h70v-583z" />
    <glyph glyph-name="uni0419" unicode="&#x419;" horiz-adv-x="651" 
d="M194.5 752q-53.5 45 -53.5 128h72q0 -54 31.5 -78.5t93.5 -24.5t93.5 24.5t31.5 78.5h72q0 -83 -54 -128t-143 -45q-90 0 -143.5 45zM546 700h70v-700h-70v583l-421 -583h-70v700h70v-583z" />
    <glyph glyph-name="uni041A" unicode="&#x41a;" horiz-adv-x="600" 
d="M555 700l-298 -350l298 -350h-90l-259 315h-91v-315h-70v700h70v-315h91l259 315h90z" />
    <glyph glyph-name="uni041B" unicode="&#x41b;" horiz-adv-x="650" 
d="M605 0h-70v630h-320v-130q0 -219 -10.5 -319t-45.5 -140.5t-114 -40.5v70q47 0 67 30t26.5 114.5t6.5 285.5v200h460v-700z" />
    <glyph glyph-name="uni041C" unicode="&#x41c;" horiz-adv-x="770" 
d="M655 700h70v-700h-70v521l-230 -521h-70l-240 526v-526h-70v700h70l274 -620z" />
    <glyph glyph-name="uni041D" unicode="&#x41d;" horiz-adv-x="650" 
d="M535 700h70v-700h-70v315h-420v-315h-70v700h70v-315h420v315z" />
    <glyph glyph-name="uni041E" unicode="&#x41e;" horiz-adv-x="719" 
d="M196.5 34.5q-71.5 44.5 -111.5 126t-40 189.5t40 189.5t111.5 126t163.5 44.5q91 0 162.5 -44.5t111.5 -126t40 -189.5t-40 -189.5t-111.5 -126t-162.5 -44.5q-92 0 -163.5 44.5zM488.5 96.5q54.5 34.5 84 99.5t29.5 154t-29.5 154t-84 99.5t-128.5 34.5t-129 -34.5
t-84.5 -99.5t-29.5 -154t29.5 -154t84.5 -99.5t129 -34.5t128.5 34.5z" />
    <glyph glyph-name="uni041F" unicode="&#x41f;" horiz-adv-x="650" 
d="M605 700v-700h-70v630h-420v-630h-70v700h560z" />
    <glyph glyph-name="uni0420" unicode="&#x420;" horiz-adv-x="630" 
d="M510 650.5q75 -49.5 75 -154.5q0 -211 -287 -211h-183v-285h-70v700h253q137 0 212 -49.5zM461.5 385.5q51.5 30.5 51.5 110.5q0 74 -52 104t-163 30h-183v-275h183q112 0 163.5 30.5z" />
    <glyph glyph-name="uni0421" unicode="&#x421;" horiz-adv-x="708" 
d="M504.5 593.5q-58.5 46.5 -144.5 46.5q-74 0 -129.5 -35t-85.5 -100.5t-30 -154.5t30 -154.5t85.5 -100.5t129.5 -35q89 0 148 49.5t85 140.5h70q-27 -121 -107 -190.5t-196 -69.5q-92 0 -163.5 44.5t-111.5 126t-40 189.5t40 189.5t111.5 126t163.5 44.5
q113 0 192.5 -66.5t108.5 -183.5h-70q-28 87 -86.5 133.5z" />
    <glyph glyph-name="uni0422" unicode="&#x422;" horiz-adv-x="650" 
d="M605 700v-70h-245v-630h-70v630h-245v70h560z" />
    <glyph glyph-name="uni0423" unicode="&#x423;" horiz-adv-x="668" 
d="M548 700h75l-333 -700h-75l90 190l-260 510h75l221 -434z" />
    <glyph glyph-name="uni0424" unicode="&#x424;" horiz-adv-x="779" 
d="M696.5 208.5q-37.5 -65.5 -108 -108t-163.5 -49.5v-51h-70v51q-94 7 -164.5 49.5t-108 108t-37.5 141.5t37.5 141.5t108 108t164.5 49.5v51h70v-51q93 -7 163.5 -49.5t108 -108t37.5 -141.5t-37.5 -141.5zM144.5 243.5q27.5 -49.5 81.5 -81.5t129 -39v454
q-75 -7 -129 -39t-81.5 -81.5t-27.5 -106.5t27.5 -106.5zM553.5 162q53.5 32 81 81.5t27.5 106.5t-27.5 106.5t-81 81.5t-128.5 39v-454q75 7 128.5 39z" />
    <glyph glyph-name="uni0425" unicode="&#x425;" horiz-adv-x="650" 
d="M605 700l-237 -350l237 -350h-85l-195 287l-195 -287h-85l238 350l-238 350h85l195 -287l195 287h85z" />
    <glyph glyph-name="uni0426" unicode="&#x426;" horiz-adv-x="720" 
d="M605 70h70v-270h-70v200h-560v700h70v-630h420v630h70v-630z" />
    <glyph glyph-name="uni0427" unicode="&#x427;" horiz-adv-x="630" 
d="M585 700v-700h-70v285h-183q-287 0 -287 211v204h72v-204q0 -80 51.5 -110.5t163.5 -30.5h183v345h70z" />
    <glyph glyph-name="uni0428" unicode="&#x428;" horiz-adv-x="900" 
d="M785 700h70v-700h-810v700h70v-630h300v630h70v-630h300v630z" />
    <glyph glyph-name="uni0429" unicode="&#x429;" horiz-adv-x="970" 
d="M855 70h70v-270h-70v200h-810v700h70v-630h300v630h70v-630h300v630h70v-630z" />
    <glyph glyph-name="uni042A" unicode="&#x42a;" horiz-adv-x="730" 
d="M685 204q0 -105 -75 -154.5t-212 -49.5h-253v630h-100v70h170v-285h183q287 0 287 -211zM561 100q52 30 52 104q0 80 -51.5 110.5t-163.5 30.5h-183v-275h183q111 0 163 30z" />
    <glyph glyph-name="uni042B" unicode="&#x42b;" horiz-adv-x="790" 
d="M585 204q0 -105 -75 -154.5t-212 -49.5h-253v700h70v-285h183q287 0 287 -211zM675 700h70v-700h-70v700zM461 100q52 30 52 104q0 80 -51.5 110.5t-163.5 30.5h-183v-275h183q111 0 163 30z" />
    <glyph glyph-name="uni042C" unicode="&#x42c;" horiz-adv-x="630" 
d="M585 204q0 -105 -75 -154.5t-212 -49.5h-253v700h70v-285h183q287 0 287 -211zM461 100q52 30 52 104q0 80 -51.5 110.5t-163.5 30.5h-183v-275h183q111 0 163 30z" />
    <glyph glyph-name="uni042D" unicode="&#x42d;" horiz-adv-x="708" 
d="M511.5 665.5q71.5 -44.5 111.5 -126t40 -189.5t-40 -189.5t-111.5 -126t-163.5 -44.5q-116 0 -196 69.5t-107 190.5h70q26 -91 85 -140.5t148 -49.5q104 0 169.5 68t74.5 187h-244v70h244q-9 119 -74.5 187t-169.5 68q-86 0 -144.5 -46.5t-86.5 -133.5h-70
q29 117 108.5 183.5t192.5 66.5q92 0 163.5 -44.5z" />
    <glyph glyph-name="uni042E" unicode="&#x42e;" horiz-adv-x="919" 
d="M722.5 665.5q71.5 -44.5 111.5 -126t40 -189.5t-40 -189.5t-111.5 -126t-162.5 -44.5q-87 0 -156 39.5t-110.5 113t-47.5 172.5h-131v-315h-70v700h70v-315h131q6 99 47.5 172.5t110.5 113t156 39.5q91 0 162.5 -44.5zM688.5 96.5q54.5 34.5 84 99.5t29.5 154t-29.5 154
t-84 99.5t-128.5 34.5t-129 -34.5t-84.5 -99.5t-29.5 -154t29.5 -154t84.5 -99.5t129 -34.5t128.5 34.5z" />
    <glyph glyph-name="uni042F" unicode="&#x42f;" horiz-adv-x="630" 
d="M585 0h-70v285h-183q-28 0 -41 1l-167 -286h-79l177 295q-177 35 -177 201q0 105 75 154.5t212 49.5h253v-700zM515 630h-183q-111 0 -163 -30t-52 -104q0 -80 51.5 -110.5t163.5 -30.5h183v275z" />
    <glyph glyph-name="uni0430" unicode="&#x430;" horiz-adv-x="498" 
d="M408.5 451q44.5 -49 44.5 -166v-285h-70v137q-17 -79 -59.5 -113t-106.5 -34q-77 0 -124.5 44t-47.5 114q0 47 21.5 85.5t61 61t89.5 22.5h165q-5 66 -32 89t-84 23q-124 0 -124 -94h-70q0 80 52 122.5t142 42.5q98 0 142.5 -49zM301 84.5q38 23.5 60 66t22 96.5h-166
q-53 0 -77.5 -27t-24.5 -72q0 -87 102 -87q46 0 84 23.5z" />
    <glyph glyph-name="uni0431" unicode="&#x431;" horiz-adv-x="540" 
d="M435 442q60 -68 60 -192t-60 -192t-164 -68q-65 0 -116.5 30t-80.5 88.5t-29 140.5v100q0 149 50.5 220.5t155.5 85.5l37 5q52 7 70 12t74 28v-70q-56 -22 -74 -27t-70 -13l-38 -6q-60 -9 -92 -48.5t-40 -123.5q24 47 63.5 72.5t89.5 25.5q104 0 164 -68zM384 107.5
q41 47.5 41 142.5t-41 142.5t-113 47.5q-71 0 -113.5 -44.5t-42.5 -145.5q0 -99 42.5 -144.5t113.5 -45.5q72 0 113 47.5z" />
    <glyph glyph-name="uni0432" unicode="&#x432;" horiz-adv-x="528" 
d="M456.5 232.5q26.5 -32.5 26.5 -82.5q0 -75 -54.5 -112.5t-171.5 -37.5h-212v500h212q86 0 131 -35t45 -90q0 -64 -67 -92q64 -18 90.5 -50.5zM115 305h142q55 0 80.5 19t25.5 51q0 26 -25.5 43t-80.5 17h-142v-130zM375.5 85q37.5 20 37.5 65t-38 67.5t-118 22.5h-142
v-175h142q81 0 118.5 20z" />
    <glyph glyph-name="uni0433" unicode="&#x433;" horiz-adv-x="439" 
d="M394 500v-65h-279v-435h-70v500h349z" />
    <glyph glyph-name="uni0434" unicode="&#x434;" horiz-adv-x="629" 
d="M584 65v-265h-60l-10 200h-399l-10 -200h-60v265h50q39 0 56.5 23t23.5 90.5t6 221.5v100h333v-435h70zM444 65v370h-188v-35q0 -135 -9 -214t-31 -121h228z" />
    <glyph glyph-name="uni0435" unicode="&#x435;" horiz-adv-x="540" 
d="M164 99q41 -40 106 -40q57 0 95 29.5t52 87.5h72q-15 -85 -73.5 -135.5t-145.5 -50.5q-68 0 -119 32t-78.5 91t-27.5 137t27.5 137t78.5 91t119 32q105 0 165 -75.5t60 -216.5h-379q7 -79 48 -119zM421 282q-19 159 -151 159q-65 0 -106 -40t-48 -119h305z" />
    <glyph glyph-name="uni0436" unicode="&#x436;" horiz-adv-x="798" 
d="M753 500l-230 -249l230 -251h-88l-199 218h-32v-218h-70v218h-32l-199 -218h-88l230 251l-230 249h88l201 -217h30v217h70v-217h30l201 217h88z" />
    <glyph glyph-name="uni0437" unicode="&#x437;" horiz-adv-x="459" 
d="M389.5 227q24.5 -28 24.5 -77q0 -73 -51 -111.5t-142 -38.5q-83 0 -129.5 38.5t-46.5 111.5h70q0 -43 29.5 -64t76.5 -21q58 0 90.5 21t32.5 64q0 44 -36.5 62t-116.5 18v65q59 0 92.5 21.5t33.5 58.5q0 29 -19.5 44.5t-76.5 15.5q-41 0 -63.5 -17t-22.5 -43h-70
q0 54 42 89.5t114 35.5q88 0 127 -34t39 -91q0 -36 -22 -60t-65 -42q65 -18 89.5 -46z" />
    <glyph glyph-name="uni0438" unicode="&#x438;" horiz-adv-x="509" 
d="M394 500h70v-500h-70v397l-279 -397h-70v500h70v-395z" />
    <glyph glyph-name="uni0439" unicode="&#x439;" horiz-adv-x="509" 
d="M126.5 575.5q-49.5 45.5 -49.5 124.5h70q0 -100 105 -100t105 100h70q0 -79 -49.5 -124.5t-125.5 -45.5t-125.5 45.5zM394 500h70v-500h-70v397l-279 -397h-70v500h70v-395z" />
    <glyph glyph-name="uni043A" unicode="&#x43a;" horiz-adv-x="515" 
d="M470 500l-230 -249l230 -251h-94l-199 218h-62v-218h-70v500h70v-217h60l201 217h94z" />
    <glyph glyph-name="uni043B" unicode="&#x43b;" horiz-adv-x="509" 
d="M464 0h-70v435h-188v-35q0 -165 -14 -249.5t-48 -117.5t-99 -33v65q39 0 56.5 23t23.5 90.5t6 221.5v100h333v-500z" />
    <glyph glyph-name="uni043C" unicode="&#x43c;" horiz-adv-x="612" 
d="M567 500v-500h-70v340l-149 -340h-75l-158 346v-346h-70v500h75l163 -364l27 -57l27 57l155 364h75z" />
    <glyph glyph-name="uni043D" unicode="&#x43d;" horiz-adv-x="509" 
d="M394 500h70v-500h-70v218h-279v-218h-70v500h70v-217h279v217z" />
    <glyph glyph-name="uni043E" unicode="&#x43e;" horiz-adv-x="540" 
d="M151 22q-51 32 -78.5 91t-27.5 137t27.5 137t78.5 91t119 32t119 -32t78.5 -91t27.5 -137t-27.5 -137t-78.5 -91t-119 -32t-119 32zM383.5 107q41.5 48 41.5 143t-41.5 143t-113.5 48t-113.5 -48t-41.5 -143t41.5 -143t113.5 -48t113.5 48z" />
    <glyph glyph-name="uni043F" unicode="&#x43f;" horiz-adv-x="509" 
d="M464 500v-500h-70v435h-279v-435h-70v500h419z" />
    <glyph glyph-name="uni0440" unicode="&#x440;" horiz-adv-x="539" 
d="M389.5 479.5q49.5 -30.5 77 -89t27.5 -140.5t-27.5 -140.5t-77 -89t-114.5 -30.5q-64 0 -103 30t-57 89v-309h-70v700h70v-109q18 59 57 89t103 30q65 0 114.5 -30.5zM382 108q42 49 42 142t-42 142t-107 49q-73 0 -116.5 -40.5t-43.5 -150.5t43.5 -150.5t116.5 -40.5
q65 0 107 49z" />
    <glyph glyph-name="uni0441" unicode="&#x441;" horiz-adv-x="534" 
d="M105 58q-60 68 -60 192t60 192t165 68q89 0 146 -48.5t73 -139.5h-70q-14 59 -52.5 88.5t-96.5 29.5q-72 0 -113.5 -48t-41.5 -142t41.5 -142t113.5 -48q58 0 96.5 29t52.5 87h70q-17 -90 -73.5 -138t-145.5 -48q-105 0 -165 68z" />
    <glyph glyph-name="uni0442" unicode="&#x442;" horiz-adv-x="498" 
d="M453 500v-65h-169v-435h-70v435h-169v65h408z" />
    <glyph glyph-name="uni0443" unicode="&#x443;" horiz-adv-x="531" 
d="M486 500l-183 -500q-24 -67 -50 -109t-65.5 -66.5t-99.5 -24.5v69q54 0 84 30t56 101l-183 500h75l146 -398l145 398h75z" />
    <glyph glyph-name="uni0444" unicode="&#x444;" horiz-adv-x="640" 
d="M355 -9v-191h-70v191q-240 16 -240 259t240 259v191h70v-191q240 -16 240 -259t-240 -259zM484 113.5q41 46.5 41 136.5t-41 136.5t-129 53.5v-380q88 7 129 53.5zM156.5 113.5q41.5 -46.5 128.5 -53.5v380q-87 -7 -128.5 -53.5t-41.5 -136.5t41.5 -136.5z" />
    <glyph glyph-name="uni0445" unicode="&#x445;" horiz-adv-x="508" 
d="M463 500l-169 -250l169 -250h-80l-129 191l-129 -191h-80l169 250l-169 250h80l129 -191l129 191h80z" />
    <glyph glyph-name="uni0446" unicode="&#x446;" horiz-adv-x="559" 
d="M464 65h50v-265h-60l-10 200h-399v500h70v-435h279v435h70v-435z" />
    <glyph glyph-name="uni0447" unicode="&#x447;" horiz-adv-x="479" 
d="M434 500v-500h-70v218h-174q-76 0 -110.5 34.5t-34.5 110.5v137h70v-122q0 -41 9.5 -61t31 -27t64.5 -7h144v217h70z" />
    <glyph glyph-name="uni0448" unicode="&#x448;" horiz-adv-x="678" 
d="M563 500h70v-500h-588v500h70v-435h189v435h70v-435h189v435z" />
    <glyph glyph-name="uni0449" unicode="&#x449;" horiz-adv-x="738" 
d="M633 65h60v-265h-60l-10 200h-578v500h70v-435h189v435h70v-435h189v435h70v-435z" />
    <glyph glyph-name="uni044A" unicode="&#x44a;" horiz-adv-x="629" 
d="M529.5 266.5q54.5 -38.5 54.5 -116.5q0 -75 -54.5 -112.5t-171.5 -37.5h-212v435h-101v65h171v-195h142q117 0 171.5 -38.5zM476.5 85q37.5 20 37.5 65t-38 67.5t-118 22.5h-142v-175h142q81 0 118.5 20z" />
    <glyph glyph-name="uni044B" unicode="&#x44b;" horiz-adv-x="659" 
d="M428.5 266.5q54.5 -38.5 54.5 -116.5q0 -75 -54.5 -112.5t-171.5 -37.5h-212v500h70v-195h142q117 0 171.5 -38.5zM544 500h70v-500h-70v500zM375.5 85q37.5 20 37.5 65t-38 67.5t-118 22.5h-142v-175h142q81 0 118.5 20z" />
    <glyph glyph-name="uni044C" unicode="&#x44c;" horiz-adv-x="528" 
d="M428.5 266.5q54.5 -38.5 54.5 -116.5q0 -75 -54.5 -112.5t-171.5 -37.5h-212v500h70v-195h142q117 0 171.5 -38.5zM375.5 85q37.5 20 37.5 65t-38 67.5t-118 22.5h-142v-175h142q81 0 118.5 20z" />
    <glyph glyph-name="uni044D" unicode="&#x44d;" horiz-adv-x="534" 
d="M429 442q60 -68 60 -192t-60 -192t-165 -68q-89 0 -145.5 48t-73.5 138h70q14 -58 52.5 -87t96.5 -29q65 0 106 39.5t48 118.5h-179v65h179q-7 78 -48 117.5t-106 39.5q-58 0 -96.5 -29.5t-52.5 -88.5h-70q16 91 73 139.5t146 48.5q105 0 165 -68z" />
    <glyph glyph-name="uni044E" unicode="&#x44e;" horiz-adv-x="730" 
d="M579 478q51 -32 78.5 -91t27.5 -137t-27.5 -137t-78.5 -91t-119 -32q-96 0 -156 61.5t-68 166.5h-121v-218h-70v500h70v-217h121q9 105 69 166t155 61q68 0 119 -32zM573.5 107q41.5 48 41.5 143t-41.5 143t-113.5 48t-113.5 -48t-41.5 -143t41.5 -143t113.5 -48
t113.5 48z" />
    <glyph glyph-name="uni044F" unicode="&#x44f;" horiz-adv-x="528" 
d="M483 0h-70v195h-142q-27 0 -39 1l-114 -196h-72l112 207q-113 32 -113 143q0 75 54.5 112.5t171.5 37.5h212v-500zM413 435h-142q-81 0 -118.5 -20t-37.5 -65t38 -67.5t118 -22.5h142v175z" />
    <glyph glyph-name="uni0451" unicode="&#x451;" horiz-adv-x="540" 
d="M188.5 624q-13.5 13 -13.5 32q0 18 13.5 31t31.5 13t31.5 -13t13.5 -31q0 -19 -13.5 -32t-31.5 -13t-31.5 13zM308.5 624q-13.5 13 -13.5 32q0 18 13.5 31t31.5 13t31.5 -13t13.5 -31q0 -19 -13.5 -32t-31.5 -13t-31.5 13zM164 99q41 -40 106 -40q57 0 95 29.5t52 87.5
h72q-15 -85 -73.5 -135.5t-145.5 -50.5q-68 0 -119 32t-78.5 91t-27.5 137t27.5 137t78.5 91t119 32q105 0 165 -75.5t60 -216.5h-379q7 -79 48 -119zM421 282q-19 159 -151 159q-65 0 -106 -40t-48 -119h305z" />
    <glyph glyph-name="uni0454" unicode="&#x454;" horiz-adv-x="534" 
d="M366.5 89q38.5 29 52.5 87h70q-17 -90 -73.5 -138t-145.5 -48q-105 0 -165 68t-60 192t60 192t165 68q89 0 146 -48.5t73 -139.5h-70q-14 59 -52.5 88.5t-96.5 29.5q-65 0 -106 -39.5t-48 -117.5h179v-65h-179q7 -79 48 -118.5t106 -39.5q58 0 96.5 29z" />
    <glyph glyph-name="uni0456" unicode="&#x456;" horiz-adv-x="180" 
d="M58.5 624q-13.5 13 -13.5 32q0 18 13.5 31t31.5 13t31.5 -13t13.5 -31q0 -19 -13.5 -32t-31.5 -13t-31.5 13zM55 500h70v-500h-70v500z" />
    <glyph glyph-name="uni0457" unicode="&#x457;" horiz-adv-x="300" 
d="M58.5 624q-13.5 13 -13.5 32q0 18 13.5 31t31.5 13t31.5 -13t13.5 -31q0 -19 -13.5 -32t-31.5 -13t-31.5 13zM178.5 624q-13.5 13 -13.5 32q0 18 13.5 31t31.5 13t31.5 -13t13.5 -31q0 -19 -13.5 -32t-31.5 -13t-31.5 13zM115 500h70v-500h-70v500z" />
    <glyph glyph-name="uni0490" unicode="&#x490;" horiz-adv-x="580" 
d="M465 800h70v-170h-420v-630h-70v700h420v100z" />
    <glyph glyph-name="uni0491" unicode="&#x491;" horiz-adv-x="439" 
d="M324 700h70v-265h-279v-435h-70v500h279v200z" />
    <glyph glyph-name="uni05BE" unicode="&#x5be;" horiz-adv-x="421" 
d="M45 570h331v-70h-331v70z" />
    <glyph glyph-name="endash" unicode="&#x2013;" 
d="M45 332h421v-70h-421v70z" />
    <glyph glyph-name="emdash" unicode="&#x2014;" horiz-adv-x="721" 
d="M45 332h631v-70h-631v70z" />
    <glyph glyph-name="quoteleft" unicode="&#x2018;" horiz-adv-x="280" 
d="M172 700l63 -29l-127 -273l-63 29z" />
    <glyph glyph-name="quoteright" unicode="&#x2019;" horiz-adv-x="235" 
d="M45 671l63 29l127 -273l-63 -29z" />
    <glyph glyph-name="quotesinglbase" unicode="&#x201a;" horiz-adv-x="280" 
d="M172 102l63 -29l-127 -273l-63 29z" />
    <glyph glyph-name="quotedblleft" unicode="&#x201c;" horiz-adv-x="430" 
d="M172 701l63 -29l-127 -273l-63 29zM322 701l63 -29l-127 -273l-63 29z" />
    <glyph glyph-name="quotedblright" unicode="&#x201d;" horiz-adv-x="430" 
d="M235 428l-63 -29l-127 273l63 29zM385 428l-63 -29l-127 273l63 29z" />
    <glyph glyph-name="quotedblbase" unicode="&#x201e;" horiz-adv-x="430" 
d="M172 102l63 -29l-127 -273l-63 29zM322 102l63 -29l-127 -273l-63 29z" />
    <glyph glyph-name="dagger" unicode="&#x2020;" horiz-adv-x="591" 
d="M481 700l65 -10v-45l-65 -10l-163 10l10 -145l-26 -700h-11l-28 700l10 145l-163 -10l-65 10v45l65 10l163 -10l-10 190h65l-10 -190z" />
    <glyph glyph-name="daggerdbl" unicode="&#x2021;" horiz-adv-x="591" 
d="M481 635l-153 9v-88l153 9l65 -10v-45l-65 -10l-153 9v-9l-26 -700h-11l-28 700v9l-153 -9l-65 10v45l65 10l153 -9v88l-153 -9l-65 10v45l65 10l153 -9v189h65v-189l153 9l65 -10v-45z" />
    <glyph glyph-name="bullet" unicode="&#x2022;" horiz-adv-x="235" 
d="M66 193.5q-21 21.5 -21 51.5q0 31 20.5 52.5t51.5 21.5t52 -21.5t21 -52.5q0 -30 -21 -51.5t-52 -21.5q-30 0 -51 21.5z" />
    <glyph glyph-name="ellipsis" unicode="&#x2026;" 
d="M59.5 15q-14.5 15 -14.5 36t14.5 36t35.5 15q22 0 36.5 -15t14.5 -36t-14.5 -36t-36.5 -15q-21 0 -35.5 15zM219.5 15q-14.5 15 -14.5 36t14.5 36t35.5 15q22 0 36.5 -15t14.5 -36t-14.5 -36t-36.5 -15q-21 0 -35.5 15zM379.5 15q-14.5 15 -14.5 36t14.5 36t35.5 15
q22 0 36.5 -15t14.5 -36t-14.5 -36t-36.5 -15q-21 0 -35.5 15z" />
    <glyph glyph-name="perthousand" unicode="&#x2030;" horiz-adv-x="1318" 
d="M128 419q-39 22 -61 61t-22 87t22 87t61 61t86 22q48 0 87.5 -22.5t62 -61.5t22.5 -86q0 -48 -23 -87t-62 -61t-87 -22q-47 0 -86 22zM263 0h-80l390 700h80zM292 489.5q31 30.5 31 77.5q0 46 -31.5 77t-76.5 31q-47 0 -77 -32t-30 -80q0 -45 30.5 -74.5t76.5 -29.5
t77 30.5zM604 22q-39 22 -61 61t-22 87t22 87t61 61t86 22q48 0 87.5 -22.5t62 -61.5t22.5 -86q0 -48 -23 -87t-62 -61t-87 -22q-47 0 -86 22zM1015 22q-39 22 -61 61t-22 87t22 87t61 61t86 22q48 0 87.5 -22.5t62 -61.5t22.5 -86q0 -48 -23 -87t-62 -61t-87 -22
q-47 0 -86 22zM769.5 92q31.5 31 31.5 78q0 46 -32 77.5t-77 31.5q-47 0 -77.5 -31.5t-30.5 -79.5q0 -46 31 -76.5t77 -30.5t77.5 31zM1180.5 92q31.5 31 31.5 78q0 46 -32 77.5t-77 31.5q-47 0 -77.5 -31.5t-30.5 -79.5q0 -46 31 -76.5t77 -30.5t77.5 31z" />
    <glyph glyph-name="guilsinglleft" unicode="&#x2039;" horiz-adv-x="335" 
d="M215 501h75l-170 -200l170 -199h-75l-170 199z" />
    <glyph glyph-name="guilsinglright" unicode="&#x203a;" horiz-adv-x="330" 
d="M285 301l-170 -199h-75l170 199l-170 200h75z" />
    <glyph glyph-name="fraction" unicode="&#x2044;" horiz-adv-x="560" 
d="M515 700l-390 -700h-80l390 700h80z" />
    <glyph glyph-name="Euro" unicode="&#x20ac;" horiz-adv-x="927" 
d="M434.5 737.5q-79.5 -66.5 -107.5 -181.5l353 1v-77l-364 -1q-1 -11 -1 -35q0 -25 1 -37l364 1v-77l-353 -1q27 -119 106.5 -186.5t199.5 -67.5q81 0 144 29v-84q-68 -21 -144 -21q-161 0 -259.5 89t-125.5 241h-98v77h89q-1 12 -1 37q0 24 1 35h-89v77h98q26 150 125 237
t260 87q76 0 144 -21v-85q-61 30 -144 30q-119 0 -198.5 -66.5z" />
    <glyph glyph-name="trademark" unicode="&#x2122;" horiz-adv-x="780" 
d="M735 700v-379h-58v275l-114 -275h-58l-119 277v-277h-59v321h-102v-321h-57v321h-123v58h361l128 -308l123 308h78z" />
    <glyph glyph-name="partialdiff" unicode="&#x2202;" horiz-adv-x="631" 
d="M452 740.5q71 -56.5 102.5 -140.5t31.5 -212q0 -215 -74.5 -309t-201.5 -94q-83 0 -144 37t-93.5 105t-32.5 159q0 78 33 138t94 93.5t143 33.5q67 0 114.5 -28.5t97.5 -86.5q-4 102 -30 163t-88 101t-180 75l33 64q124 -42 195 -98.5zM486 395q-28 44 -74.5 65
t-101.5 21q-53 0 -98 -20.5t-73 -64t-28 -110.5q0 -115 55.5 -173t143.5 -58q60 0 106 28t72 80.5t26 122.5q0 65 -28 109z" />
    <glyph glyph-name="emptyset" unicode="&#x2205;" horiz-adv-x="758" 
d="M588 523q26 -33 40.5 -75t14.5 -88q0 -74 -35 -134.5t-95.5 -95t-133.5 -34.5q-47 0 -88.5 14t-75.5 40l-124 -124l-46 46l124 124q-26 34 -40 75.5t-14 88.5q0 74 34.5 134.5t95 95t134.5 34.5q46 0 88 -14.5t75 -40.5l125 125l46 -46zM219 246l273 273q-49 35 -113 35
q-55 0 -99 -25.5t-69.5 -69.5t-25.5 -99q0 -62 34 -114zM538 473l-273 -273q52 -34 114 -34q54 0 98.5 25.5t70 69.5t25.5 99q0 64 -35 113z" />
    <glyph glyph-name="product" unicode="&#x220f;" horiz-adv-x="632" 
d="M587 700v-70h-80v-730h-70v730h-252v-730h-70v730h-70v70h542z" />
    <glyph glyph-name="summation" unicode="&#x2211;" horiz-adv-x="490" 
d="M445 700v-69h-328l298 -283v-100l-296 -280h326v-70h-400v88l321 312l-321 313v89h400z" />
    <glyph glyph-name="minus" unicode="&#x2212;" 
d="M45 324h421v-70h-421v70z" />
    <glyph glyph-name="radical" unicode="&#x221a;" horiz-adv-x="600" 
d="M542 950h148v-70h-97l-303 -1080h-78l-172 487h71l136 -382z" />
    <glyph glyph-name="infinity" unicode="&#x221e;" horiz-adv-x="1218" 
d="M388 51.5q-30 -18.5 -59 -27t-67 -8.5q-70 0 -119 33t-73.5 86t-24.5 113t24.5 113t73.5 86t119 33q38 0 67 -8.5t59.5 -27.5t88.5 -60l132 -94l132 94q58 41 88.5 60t59.5 27.5t67 8.5q70 0 119 -33t73.5 -86t24.5 -113t-24.5 -113t-73.5 -86t-119 -33q-38 0 -67 8.5
t-59 27t-89 60.5l-132 94l-132 -94q-59 -42 -89 -60.5zM360.5 388.5q-51.5 21.5 -98.5 21.5q-78 0 -112.5 -47t-34.5 -115t34.5 -115t112.5 -47q47 0 98.5 21.5t119.5 77.5l78 63l-78 64q-68 55 -119.5 76.5zM857.5 107.5q51.5 -21.5 98.5 -21.5q78 0 112.5 47t34.5 115
t-34.5 115t-112.5 47q-47 0 -98.5 -21.5t-119.5 -76.5l-78 -64l78 -63q68 -56 119.5 -77.5z" />
    <glyph glyph-name="integral" unicode="&#x222b;" horiz-adv-x="573" 
d="M84 -33q39 0 56 12.5t28 48.5l176 575q14 47 45.5 72t78.5 25h60v-68h-39q-39 0 -56 -12.5t-28 -48.5l-179 -584q-14 -46 -46 -67t-75 -21h-60v68h39z" />
    <glyph glyph-name="approxequal" unicode="&#x2248;" 
d="M127 433q57 0 129 -24q60 -20 116 -20q59 0 94 25v-70q-37 -26 -94 -26q-51 0 -116 21q-74 24 -129 24q-47 0 -82 -19v70q33 19 82 19zM127 253q57 0 129 -24q60 -20 116 -20q59 0 94 25v-70q-37 -26 -94 -26q-51 0 -116 21q-74 24 -129 24q-47 0 -82 -19v70q33 19 82 19
z" />
    <glyph glyph-name="notequal" unicode="&#x2260;" horiz-adv-x="560" 
d="M515 636l-124 -222h100v-70h-139l-61 -110h200v-70h-239l-127 -228h-80l127 228h-102v70h141l61 110h-202v70h241l124 222h80z" />
    <glyph glyph-name="lessequal" unicode="&#x2264;" 
d="M466 474v-70l-323 -115l323 -115v-70l-421 150v70zM45 0v70h421v-70h-421z" />
    <glyph glyph-name="greaterequal" unicode="&#x2265;" 
d="M45 474l421 -150v-70l-421 -150v70l323 115l-323 115v70zM45 70h421v-70h-421v70z" />
    <glyph glyph-name="lozenge" unicode="&#x25ca;" horiz-adv-x="460" 
d="M266 462l149 -231l-149 -231h-70l-151 231l151 231h70zM231 54l114 177l-114 177l-116 -177z" />
    <glyph glyph-name="G.ss01" horiz-adv-x="714" 
d="M85 539.5q40 81.5 111.5 126t163.5 44.5q113 0 194 -67t108 -183h-66q-25 84 -87 131t-149 47q-74 0 -129 -34.5t-84.5 -99.5t-29.5 -154t29.5 -154t84.5 -99.5t129 -34.5q96 0 159.5 57.5t79.5 160.5h-239v70h309v-350h-65v149q-33 -77 -95 -118t-149 -41
q-92 0 -163.5 44.5t-111.5 126t-40 189.5t40 189.5z" />
    <glyph glyph-name="Q.ss01" horiz-adv-x="719" 
d="M638.5 171q-35.5 -78 -98.5 -124t-145 -55v-192h-70v192q-82 8 -145.5 54t-99 124.5t-35.5 179.5q0 108 40 189.5t111.5 126t163.5 44.5q91 0 162.5 -44.5t111.5 -126t40 -189.5q0 -101 -35.5 -179zM547 151.5q55 75.5 55 198.5q0 89 -29.5 154t-84 99.5t-128.5 34.5
t-129 -34.5t-84.5 -99.5t-29.5 -154q0 -123 55.5 -198.5t152.5 -87.5v170h70v-170q97 12 152 87.5z" />
    <glyph glyph-name="a.ss01" horiz-adv-x="539" 
d="M494 500v-500h-70v109q-18 -59 -57 -89t-103 -30q-104 0 -161.5 67.5t-57.5 192.5t57.5 192.5t161.5 67.5q64 0 103 -30t57 -89v109h70zM380.5 99.5q43.5 40.5 43.5 150.5t-43.5 150.5t-116.5 40.5q-71 0 -110 -48t-39 -143t39 -143t110 -48q73 0 116.5 40.5z" />
    <glyph glyph-name="uni0430.ss01" horiz-adv-x="539" 
d="M494 500v-500h-70v109q-18 -59 -57 -89t-103 -30q-104 0 -161.5 67.5t-57.5 192.5t57.5 192.5t161.5 67.5q64 0 103 -30t57 -89v109h70zM380.5 99.5q43.5 40.5 43.5 150.5t-43.5 150.5t-116.5 40.5q-71 0 -110 -48t-39 -143t39 -143t110 -48q73 0 116.5 40.5z" />
    <glyph glyph-name="uni0436.ss01" horiz-adv-x="798" 
d="M753 500l-230 -249l230 -251h-88l-199 218h-32v-218h-70v218h-32l-199 -218h-88l230 251l-230 249h88l201 -217h30v417h70v-417h30l201 217h88z" />
    <glyph glyph-name="uni0437.ss01" horiz-adv-x="493" 
d="M437 65l-171 -265h-85l129 200h-265l281 435h-271v65h393l-281 -435h270z" />
    <glyph glyph-name="uni043A.ss01" horiz-adv-x="509" 
d="M464 500l-230 -249l230 -251h-88l-199 218h-62v-218h-70v700h70v-417h60l201 217h88z" />
    <glyph glyph-name="thb" horiz-adv-x="600" 
 />
    </font>
</defs>
</svg>
